<svg xmlns="http://www.w3.org/2000/svg" viewBox="0 0 1024 1024" role="img" aria-labelledby="title desc">
  <title id="title">LAN Firehose Throughput Test icon</title>
  <desc id="desc">A bright red fire hydrant spraying blue water mixed with binary digits.</desc>
  <defs>
    <linearGradient id="bg" x1="0" y1="0" x2="1" y2="1">
      <stop offset="0" stop-color="#f7f8fb"/>
      <stop offset="1" stop-color="#e8edf5"/>
    </linearGradient>
    <linearGradient id="red" x1="0.2" y1="0" x2="0.9" y2="1">
      <stop offset="0" stop-color="#ff4545"/>
      <stop offset="0.45" stop-color="#e41418"/>
      <stop offset="1" stop-color="#9f060a"/>
    </linearGradient>
    <linearGradient id="red-dark" x1="0" y1="0" x2="1" y2="1">
      <stop offset="0" stop-color="#c20c10"/>
      <stop offset="1" stop-color="#6f0205"/>
    </linearGradient>
    <linearGradient id="water" x1="0" y1="0.45" x2="1" y2="0.55">
      <stop offset="0" stop-color="#ffffff"/>
      <stop offset="0.18" stop-color="#65d9ff"/>
      <stop offset="1" stop-color="#069bd2"/>
    </linearGradient>
    <filter id="shadow" x="-15%" y="-15%" width="130%" height="130%">
      <feDropShadow dx="0" dy="14" stdDeviation="18" flood-color="#142236" flood-opacity="0.18"/>
    </filter>
    <filter id="ink">
      <feMorphology operator="dilate" radius="2"/>
      <feComposite in2="SourceGraphic" operator="xor"/>
    </filter>
  </defs>
  <rect width="1024" height="1024" rx="118" fill="url(#bg)"/>
  <path d="M430 126c96 2 172 42 221 108 31 42 42 93 36 154 42 14 75 51 75 96 0 34-17 64-43 83 6 43 10 96 10 160 0 50-7 90-20 121h72c42 0 77 34 77 76v26H145v-26c0-42 34-76 77-76h66c-12-31-19-71-19-121 0-63 4-116 10-159-31-19-52-52-52-91 0-47 31-86 74-100-4-61 9-112 42-153 21-26 49-47 84-62l3-36z" fill="#0a0d14" opacity="0.18" filter="url(#shadow)"/>
  <g stroke="#0b0d12" stroke-width="18" stroke-linejoin="round" stroke-linecap="round">
    <path d="M724 360c61 14 151-4 250-65-44 91-112 164-212 218 86 18 161 57 225 125-106-18-190-19-254-4 61 44 110 106 147 187-82-46-157-73-226-80-58-6-107-3-148 9l1-285c48-46 120-78 217-105z" fill="url(#water)"/>
    <path d="M558 442c65-42 134-67 207-75-75 45-143 86-207 124z" fill="#a9f0ff"/>
    <path d="M553 551c65 4 128 20 189 47-75 0-139 4-191 14z" fill="#a9f0ff"/>
    <path d="M557 664c62 10 119 34 171 71-71-14-131-21-180-20z" fill="#a9f0ff"/>
  </g>
  <g font-family="Arial Black, Arial, sans-serif" font-size="88" font-weight="900" fill="#fff" stroke="#0b0d12" stroke-width="10" stroke-linejoin="round" transform="rotate(-7 770 536)">
    <text x="702" y="414">10010</text>
    <text x="674" y="516">10101</text>
    <text x="712" y="620">01001</text>
    <text x="650" y="724">11010</text>
    <text x="805" y="817">011</text>
  </g>
  <g filter="url(#shadow)" stroke="#0b0d12" stroke-width="17" stroke-linejoin="round" stroke-linecap="round">
    <path d="M351 244c18-82 72-127 162-127s143 45 162 127z" fill="url(#red)"/>
    <path d="M382 121h261l16 59H366z" fill="#f53235"/>
    <path d="M423 68h177v70H423z" fill="url(#red-dark)"/>
    <path d="M308 244h410c35 0 64 29 64 64v34H244v-34c0-35 29-64 64-64z" fill="url(#red)"/>
    <path d="M329 342h368c20 103 30 232 20 390-6 83-35 124-87 124H398c-52 0-81-41-87-124-11-158-1-287 18-390z" fill="url(#red)"/>
    <path d="M226 432h139v178H226c-49 0-89-40-89-89s40-89 89-89z" fill="url(#red-dark)"/>
    <path d="M660 432h74c49 0 89 40 89 89s-40 89-89 89h-74z" fill="url(#red-dark)"/>
    <path d="M141 486h185v72H141z" fill="url(#red)"/>
    <path d="M690 486h161v72H690z" fill="url(#red)"/>
    <path d="M229 658h574v84H229z" fill="url(#red-dark)"/>
    <path d="M218 856h594c46 0 84 37 84 84v28H134v-28c0-47 38-84 84-84z" fill="url(#red)"/>
    <path d="M292 801h448v58H292z" fill="url(#red-dark)"/>
    <path d="M222 611c68 62 152 94 252 94s184-32 252-94" fill="none" opacity="0.95"/>
    <path d="M339 418c-28 77-35 173-20 287" fill="none" opacity="0.6"/>
    <path d="M686 418c28 77 35 173 20 287" fill="none" opacity="0.6"/>
    <path d="M397 267c-19 78-21 138-7 180" fill="none" opacity="0.75"/>
    <path d="M514 263c-10 72-10 129 0 172" fill="none" opacity="0.75"/>
    <path d="M627 267c19 78 21 138 7 180" fill="none" opacity="0.75"/>
  </g>
  <g fill="#fff" stroke="#0b0d12" stroke-width="10" stroke-linejoin="round" stroke-linecap="round">
    <path d="M773 338c-5 36-21 63-48 82"/>
    <path d="M859 214c-9 38-27 68-55 91"/>
    <path d="M895 527c32 10 63 26 92 48"/>
    <path d="M844 802c28 29 49 65 61 107"/>
  </g>
  <g fill="#ffffff" opacity="0.75">
    <ellipse cx="541" cy="160" rx="20" ry="52" transform="rotate(-16 541 160)"/>
    <ellipse cx="684" cy="398" rx="16" ry="44" transform="rotate(44 684 398)"/>
    <circle cx="762" cy="453" r="26"/>
    <circle cx="813" cy="471" r="18"/>
    <circle cx="710" cy="494" r="15"/>
    <ellipse cx="363" cy="373" rx="15" ry="46" transform="rotate(14 363 373)"/>
  </g>
</svg>
